<?xml version="1.0" standalone="no"?>
<!DOCTYPE svg PUBLIC "-//W3C//DTD SVG 1.1//EN" "http://www.w3.org/Graphics/SVG/1.1/DTD/svg11.dtd" >
<svg xmlns="http://www.w3.org/2000/svg" xmlns:xlink="http://www.w3.org/1999/xlink" version="1.1" viewBox="-16 0 1024 1000">
   <path fill="currentColor"
d="M913 637c-30.874 0.964844 -61.7861 1.59473 -92.2246 1.59473c-127.304 0 -246.335 -11.0146 -319.775 -54.5947c-42 -25 -74 -67 -74 -122c0 -66 43 -143 130 -237c86 -93 166 -149 240 -149c184 0 197 326 199 518c0 1 2 112 2 136c0 164 -15 402 -339 402
c-186 0 -312 0 -424 -32c-123 -35 -241 -118 -241 -336h83c0 283 224 285 582 285c227.917 0 255.316 -128.422 255.316 -319.532c0 -29.417 -0.649414 -60.3193 -1.31641 -92.4678zM912 554c-2 -92 -8 -204 -31 -285c-22 -80 -53 -110 -84 -110c-80 0 -230 166 -270 245
c-12.4268 24.5254 -17.1533 43.3838 -17.1533 58.0781c0 30.2412 20.0205 42.8457 34.1533 50.9219c60.5977 35.7744 181.428 42.7656 276.875 42.7656c35.2861 0 67.1035 -0.956055 91.125 -1.76562zM753 -211c-97 136 -226 220 -349 300l-46 -69
c140 -92 272 -179 360 -330l34 -58l37 56c21 32 44 66 56 104c5.33594 16.4336 7.61914 31.3184 7.61914 44.751c0 49.5098 -31.0215 79.3037 -54.6191 94.249l-46 -70c9.19531 -6.32227 17.4004 -12.3135 17.4004 -25.9482c0 -10.0889 -4.49219 -24.3623 -16.4004 -46.0518
z" />
</svg>
